# xmcd
#
# Track frame offsets: 
#        150
#        12426
#        34563
#        46993
#        50213
#        62649
#        74736
#        86298
#        100474
#        116000
#        134925
#        152208
#
# Disc length: 2322 seconds
#
# Revision: 3
# Processed by: cddbd v1.5.2PL0 Copyright (c) Steve Scherf et al.
# Submitted via: ExactAudioCopyFreeDBPlugin 1.0
#
DISCID=b109100c
DTITLE=Bruno Lauzi - Flashback [Disc 2]
DYEAR=2009
DGENRE=Pop
TTITLE0=Il Tuo Amore
TTITLE1=L'Aquila
TTITLE2=Ti Ruberò
TTITLE3=O Frigideiro
TTITLE4=Viva La Libertà
TTITLE5=Margherita
TTITLE6=La Donna Del Sud
TTITLE7=Ma Se Ghe Penso
TTITLE8=Genova Per Noi
TTITLE9=Ah L'Amore
TTITLE10=Canzone Italiana
TTITLE11=Se Tu Sapessi
EXTD=
EXTT0=
EXTT1=
EXTT2=
EXTT3=
EXTT4=
EXTT5=
EXTT6=
EXTT7=
EXTT8=
EXTT9=
EXTT10=
EXTT11=
PLAYORDER=
